<?xml version="1.0" encoding="utf-8"?>
<!-- Generator: Adobe Illustrator 16.0.0, SVG Export Plug-In . SVG Version: 6.00 Build 0)  -->
<!DOCTYPE svg PUBLIC "-//W3C//DTD SVG 1.1//EN" "http://www.w3.org/Graphics/SVG/1.1/DTD/svg11.dtd">
<svg version="1.1" id="Layer_1" xmlns="http://www.w3.org/2000/svg" xmlns:xlink="http://www.w3.org/1999/xlink" x="0px" y="0px"
	 width="96px" height="96px" viewBox="0 0 96 96" enable-background="new 0 0 96 96" xml:space="preserve">
<g>
	<path d="M21.53,40.977c4.192-0.08,6.96-4.018,6.946-9.893c-0.005-4.224-2.735-6.697-7.278-6.596
		c-4.374,0.1-6.789,2.521-6.743,6.761C14.521,37.354,17.213,41.056,21.53,40.977z"/>
	<path d="M93.905,70.869l-5.985-6.025V10.277H0.669v56.929h62.679l17.131,17.092c0.95,0.95,2.195,1.425,3.44,1.425
		c1.246,0,2.492-0.475,3.442-1.425l6.544-6.544c0.913-0.914,1.426-2.151,1.426-3.442C95.331,73.02,94.817,71.783,93.905,70.869z
		 M42.014,23.441h38.782v3.841H42.014V23.441z M42.014,34.4h27.983v3.841H42.014V34.4z M13.12,55.572h-0.762l-0.223-0.369
		l0.984-1.646V55.572z M23.208,55.572h-3.484l1.721-11.505h0.043 M30.618,55.572h-0.808v-2.089l1.03,1.72L30.618,55.572z
		 M34.199,50.018l-3.01-5.071c-0.33-0.55-0.823-0.936-1.378-1.153l-3.756-1.7L24.518,40.7l-3.052,2.785l-2.982-2.81l-1.74,1.469
		L13.12,43.81c-0.536,0.22-1.011,0.601-1.332,1.137l-2.98,5.002V20.491H34.19L34.199,50.018z M42.014,48.84v-3.843h8.188
		l0.896,3.843H42.014z M57.745,54.656l-2.784-9.364l9.362,2.785L85.34,69.086l-6.587,6.588L57.745,54.656z M83.838,80.714
		l-3.906-3.907l6.545-6.543l3.906,3.905L83.838,80.714z"/>
</g>
</svg>
