<?xml version="1.0" encoding="utf-8"?>
<!-- Generator: Adobe Illustrator 16.0.4, SVG Export Plug-In . SVG Version: 6.00 Build 0)  -->
<!DOCTYPE svg PUBLIC "-//W3C//DTD SVG 1.1//EN" "http://www.w3.org/Graphics/SVG/1.1/DTD/svg11.dtd">
<svg version="1.1" id="Layer_1" xmlns="http://www.w3.org/2000/svg" xmlns:xlink="http://www.w3.org/1999/xlink" x="0px" y="0px"
	 width="50px" height="50px" viewBox="0 0 50 50" enable-background="new 0 0 50 50" xml:space="preserve">
<path d="M20.654,30.854c0,2.418-1.285,4.381-2.871,4.381c-1.588,0-2.873-1.963-2.873-4.381c0-2.421,1.285-4.382,2.873-4.382
	C19.369,26.473,20.654,28.434,20.654,30.854z M32.002,26.473c-1.588,0-2.873,1.961-2.873,4.382c0,2.418,1.285,4.381,2.873,4.381
	c1.586,0,2.871-1.963,2.871-4.381C34.873,28.434,33.588,26.473,32.002,26.473z M43.635,26.653c0,7.754-3.949,14.039-14.395,14.039
	h-8.48c-10.806,0-14.396-6.285-14.396-14.039c0-3.236,1.123-6.215,3.009-8.59c-1.435-5.422,0.702-8.755,0.702-8.755
	c3.182-0.038,6.025,1.829,7.971,3.556c0.879-0.164,1.786-0.25,2.715-0.25h8.479c0.965,0,1.906,0.093,2.814,0.269
	c1.945-1.729,4.801-3.61,7.99-3.573c0,0,0.002,0.004,0.006,0.01c0,0,0,0,0.002,0.002c0.002,0.006,0.01,0.016,0.018,0.026
	c0,0.001,0,0.003,0.002,0.005c0.014,0.024,0.035,0.062,0.062,0.111c0,0.001,0,0.002,0.002,0.004
	c0.014,0.023,0.027,0.053,0.045,0.083c0.002,0.002,0.002,0.003,0.002,0.004c0.451,0.867,1.797,3.995,0.535,8.624
	C42.549,20.534,43.635,23.469,43.635,26.653z M38.729,30.634c-0.525-3.775-1.979-6.807-6.033-6.578
	c-2.256,0.131-5.252,0.785-8.234,0.812c-2.534,0.023-5.07-0.56-6.989-0.67c-4.054-0.228-5.508,2.658-6.031,6.436
	c-0.526,3.766,1.806,7.34,6.475,7.605c4.703,0.271,9.42,0.271,14.124,0C36.707,37.974,39.254,34.399,38.729,30.634z"/>
</svg>
