<?xml version="1.0" encoding="utf-8"?>
<!-- Generator: Adobe Illustrator 16.0.0, SVG Export Plug-In . SVG Version: 6.00 Build 0)  -->
<!DOCTYPE svg PUBLIC "-//W3C//DTD SVG 1.1//EN" "http://www.w3.org/Graphics/SVG/1.1/DTD/svg11.dtd">
<svg version="1.1" id="Layer_2" xmlns="http://www.w3.org/2000/svg" xmlns:xlink="http://www.w3.org/1999/xlink" x="0px" y="0px"
	 width="50px" height="50px" viewBox="0 0 50 50" enable-background="new 0 0 50 50" xml:space="preserve">
<path d="M37.5,4.73h-25c-4.418,0-8,3.582-8,8v14.196c0,4.418,3.582,8,8,8h6.014l-6.369,6.027c-1.002,0.949-1.045,2.531-0.097,3.533
	c0.948,1.004,2.531,1.045,3.534,0.099l6.918-6.547v4.731c0,1.381,1.119,2.5,2.5,2.5s2.5-1.119,2.5-2.5v-4.731l6.918,6.548
	c0.482,0.457,1.102,0.684,1.719,0.684c0.662,0,1.324-0.262,1.815-0.781c0.948-1.002,0.905-2.586-0.097-3.534l-6.369-6.027H37.5
	c4.418,0,8-3.582,8-8V12.73C45.5,8.312,41.918,4.73,37.5,4.73z M36.75,27.677h-23.5c-1.104,0-2-0.896-2-2c0-1.104,0.896-2,2-2h23.5
	c1.104,0,2,0.896,2,2C38.75,26.781,37.854,27.677,36.75,27.677z M36.75,21.828h-23.5c-1.104,0-2-0.896-2-2s0.896-2,2-2h23.5
	c1.104,0,2,0.896,2,2S37.854,21.828,36.75,21.828z M36.75,15.979H22.5c-1.104,0-2-0.896-2-2s0.896-2,2-2h14.25c1.104,0,2,0.896,2,2
	S37.854,15.979,36.75,15.979z"/>
</svg>
